<svg xmlns="http://www.w3.org/2000/svg" viewBox="0 0 512 512"><path d="M256 0A256.2 256.2 0 000 256c0 56 18 107.9 48.7 150l-31.9 95.2 98.4-31.5A253.8 253.8 0 00256.1 512C397.2 512 512 397.2 512 256S397.2 0 256 0zm149 361.5c-6.2 17.4-30.7 32-50.2 36.1-13.4 2.9-30.9 5.2-89.7-19.2-75.2-31.2-123.7-107.6-127.4-112.6-3.7-5-30.4-40.5-30.4-77.2s18.6-54.6 26.1-62.3a37.2 37.2 0 0126.2-9.2c3.2 0 6 .1 8.6.3 7.5.3 11.3.7 16.2 12.6l23 55.4c1.9 3.8 3.7 8.9 1.1 13.9-2.4 5-4.5 7.4-8.2 11.7s-7.4 7.7-11.2 12.4c-3.4 4-7.3 8.4-3 15.9 4.4 7.4 19.4 31.9 41.5 51.6 28.6 25.5 51.8 33.6 60 37 6.3 2.6 13.6 2 18.1-2.8 5.8-6.2 12.8-16.4 20-26.5 5.1-7.2 11.6-8.1 18.4-5.6 7 2.4 43.5 20.5 51 24.2 7.5 3.8 12.5 5.6 14.3 8.8 1.8 3.2 1.8 18-4.4 35.5z"/></svg>