<svg xmlns="http://www.w3.org/2000/svg" viewBox="0 0 448 448"><path d="M380.9 65.1A220.3 220.3 0 0 0 223.9 0C101.5 0 1.9 99.6 1.9 222a222.2 222.2 0 0 0 29.6 111L0 448l117.7-30.9a221.3 221.3 0 0 0 106.1 27h.1c122.3 0 224.1-99.6 224.1-222 0-59.3-25.2-115-67.1-157Zm-157 341.6a184.2 184.2 0 0 1-94-25.7l-6.7-4-69.8 18.3L72 327.2l-4.4-7A183.9 183.9 0 0 1 39.4 222c0-101.7 82.8-184.5 184.6-184.5a182.9 182.9 0 0 1 130.4 54.1c34.8 34.9 56.2 81.2 56.1 130.5 0 101.8-84.9 184.6-186.6 184.6Zm101.2-138.2c-5.5-2.8-32.8-16.2-37.9-18s-8.8-2.8-12.5 2.8-14.3 18-17.6 21.8-6.5 4.2-12 1.4c-32.6-16.3-54-29.1-75.5-66-5.7-9.8 5.7-9.1 16.3-30.3 1.8-3.7.9-6.9-.5-9.7s-12.5-30.1-17.1-41.2-9.1-9.3-12.5-9.5-6.9-.2-10.6-.2a20.5 20.5 0 0 0-14.8 6.9c-5.1 5.6-19.4 19-19.4 46.3s19.9 53.7 22.6 57.4 39.1 59.7 94.8 83.8c35.2 15.2 49 16.5 66.6 13.9 10.7-1.6 32.8-13.4 37.4-26.4s4.6-24.1 3.2-26.4-5-3.9-10.5-6.6Z" fill="#fff"/></svg>